<svg width="967" height="748" viewBox="0 0 967 748" fill="none" xmlns="http://www.w3.org/2000/svg">
<path d="M334.623 130.049L313.606 96.5041H128.492V130.049V142.114V700.183H890.455V130.049H334.623Z" fill="#263238"/>
<path d="M885.438 145.432H134.151V688.016H885.438V145.432Z" fill="white"/>
<path opacity="0.17" d="M889.117 140.776H871.676V692.132H889.117V140.776Z" fill="black"/>
<path opacity="0.17" d="M889.117 474.141H871.676V687.656H889.117V474.141Z" fill="black"/>
<path d="M886.416 138.101H131.167V167.607H886.416V138.101Z" fill="#C2B2C2" stroke="#263238" stroke-miterlimit="10"/>
<path d="M885.438 145.432H134.151V688.016H885.438V145.432Z" stroke="#263238" stroke-linecap="round" stroke-linejoin="round"/>
<g opacity="0.17">
<path d="M525.577 196.058H473.022C472.413 196.058 471.811 195.939 471.25 195.706C470.688 195.473 470.177 195.132 469.747 194.702C469.317 194.272 468.976 193.762 468.744 193.2C468.511 192.638 468.391 192.036 468.391 191.428C468.388 190.818 468.505 190.213 468.736 189.648C468.967 189.083 469.308 188.57 469.738 188.137C470.168 187.704 470.68 187.361 471.244 187.127C471.807 186.892 472.411 186.772 473.022 186.772H525.577C526.187 186.772 526.791 186.892 527.355 187.127C527.918 187.361 528.43 187.704 528.86 188.137C529.291 188.57 529.631 189.083 529.862 189.648C530.093 190.213 530.211 190.818 530.207 191.428V191.428C530.207 192.036 530.088 192.638 529.855 193.2C529.622 193.762 529.281 194.272 528.851 194.702C528.421 195.132 527.911 195.473 527.349 195.706C526.787 195.939 526.185 196.058 525.577 196.058V196.058Z" fill="black"/>
<path d="M630.688 196.058H578.132C576.906 196.052 575.732 195.562 574.865 194.695C573.999 193.828 573.509 192.654 573.502 191.428C573.502 190.197 573.989 189.017 574.856 188.145C575.724 187.272 576.902 186.779 578.132 186.772H630.688C631.922 186.772 633.107 187.262 633.98 188.136C634.853 189.009 635.344 190.193 635.344 191.428V191.428C635.337 192.658 634.843 193.836 633.971 194.704C633.098 195.571 631.918 196.058 630.688 196.058V196.058Z" fill="black"/>
<path d="M735.824 196.058H683.269C682.038 196.058 680.858 195.571 679.985 194.704C679.113 193.836 678.619 192.658 678.613 191.428V191.428C678.613 190.193 679.103 189.009 679.976 188.136C680.849 187.262 682.034 186.772 683.269 186.772H735.824C737.054 186.779 738.232 187.272 739.1 188.145C739.967 189.017 740.454 190.197 740.454 191.428V191.428C740.448 192.654 739.958 193.828 739.091 194.695C738.224 195.562 737.05 196.052 735.824 196.058V196.058Z" fill="black"/>
<path d="M840.935 196.058H788.379C787.771 196.058 787.169 195.939 786.607 195.706C786.046 195.473 785.535 195.132 785.105 194.702C784.675 194.272 784.334 193.762 784.101 193.2C783.869 192.638 783.749 192.036 783.749 191.428V191.428C783.746 190.818 783.863 190.213 784.094 189.648C784.325 189.083 784.666 188.57 785.096 188.137C785.526 187.704 786.038 187.361 786.601 187.127C787.165 186.892 787.769 186.772 788.379 186.772H840.935C842.165 186.779 843.343 187.272 844.211 188.145C845.078 189.017 845.565 190.197 845.565 191.428V191.428C845.558 192.654 845.068 193.828 844.201 194.695C843.335 195.562 842.161 196.052 840.935 196.058V196.058Z" fill="black"/>
</g>
<path d="M205.151 417.521H284.563" stroke="#263238" stroke-width="3" stroke-linecap="round" stroke-linejoin="round"/>
<path d="M283.148 429.895H291.817" stroke="#263238" stroke-linecap="round" stroke-linejoin="round"/>
<path d="M233.422 429.895H277.9" stroke="#263238" stroke-linecap="round" stroke-linejoin="round"/>
<path d="M199.08 429.895H228.715" stroke="#263238" stroke-linecap="round" stroke-linejoin="round"/>
<path d="M255.391 442.269H291.817" stroke="#263238" stroke-linecap="round" stroke-linejoin="round"/>
<path d="M235.506 442.269H249.655" stroke="#263238" stroke-linecap="round" stroke-linejoin="round"/>
<path d="M199.08 442.269H229.229" stroke="#263238" stroke-linecap="round" stroke-linejoin="round"/>
<path d="M218.759 454.616H291.817" stroke="#263238" stroke-linecap="round" stroke-linejoin="round"/>
<path d="M199.08 454.616H211.968" stroke="#263238" stroke-linecap="round" stroke-linejoin="round"/>
<path d="M273.733 466.99H291.817" stroke="#263238" stroke-linecap="round" stroke-linejoin="round"/>
<path d="M239.185 466.99H267.43" stroke="#263238" stroke-linecap="round" stroke-linejoin="round"/>
<path d="M199.08 466.99H233.422" stroke="#263238" stroke-linecap="round" stroke-linejoin="round"/>
<path d="M229.229 479.363H291.817" stroke="#263238" stroke-linecap="round" stroke-linejoin="round"/>
<path d="M199.08 479.363H223.467" stroke="#263238" stroke-linecap="round" stroke-linejoin="round"/>
<path d="M386.252 417.521H465.664" stroke="#263238" stroke-width="3" stroke-linecap="round" stroke-linejoin="round"/>
<path d="M464.249 429.895H472.918" stroke="#263238" stroke-linecap="round" stroke-linejoin="round"/>
<path d="M414.524 429.895H459.002" stroke="#263238" stroke-linecap="round" stroke-linejoin="round"/>
<path d="M380.181 429.895H409.816" stroke="#263238" stroke-linecap="round" stroke-linejoin="round"/>
<path d="M436.493 442.269H472.919" stroke="#263238" stroke-linecap="round" stroke-linejoin="round"/>
<path d="M416.607 442.269H430.756" stroke="#263238" stroke-linecap="round" stroke-linejoin="round"/>
<path d="M380.181 442.269H410.331" stroke="#263238" stroke-linecap="round" stroke-linejoin="round"/>
<path d="M399.861 454.616H472.919" stroke="#263238" stroke-linecap="round" stroke-linejoin="round"/>
<path d="M380.181 454.616H393.069" stroke="#263238" stroke-linecap="round" stroke-linejoin="round"/>
<path d="M454.834 466.99H472.918" stroke="#263238" stroke-linecap="round" stroke-linejoin="round"/>
<path d="M420.286 466.99H448.532" stroke="#263238" stroke-linecap="round" stroke-linejoin="round"/>
<path d="M380.181 466.99H414.524" stroke="#263238" stroke-linecap="round" stroke-linejoin="round"/>
<path d="M410.331 479.363H472.919" stroke="#263238" stroke-linecap="round" stroke-linejoin="round"/>
<path d="M380.181 479.363H404.568" stroke="#263238" stroke-linecap="round" stroke-linejoin="round"/>
<path d="M567.354 417.521H646.765" stroke="#263238" stroke-width="3" stroke-linecap="round" stroke-linejoin="round"/>
<path d="M645.351 429.895H654.02" stroke="#263238" stroke-linecap="round" stroke-linejoin="round"/>
<path d="M595.625 429.895H640.103" stroke="#263238" stroke-linecap="round" stroke-linejoin="round"/>
<path d="M561.283 429.895H590.917" stroke="#263238" stroke-linecap="round" stroke-linejoin="round"/>
<path d="M617.594 442.269H654.02" stroke="#263238" stroke-linecap="round" stroke-linejoin="round"/>
<path d="M597.709 442.269H611.857" stroke="#263238" stroke-linecap="round" stroke-linejoin="round"/>
<path d="M561.283 442.269H591.432" stroke="#263238" stroke-linecap="round" stroke-linejoin="round"/>
<path d="M580.962 454.616H654.02" stroke="#263238" stroke-linecap="round" stroke-linejoin="round"/>
<path d="M561.283 454.616H574.171" stroke="#263238" stroke-linecap="round" stroke-linejoin="round"/>
<path d="M635.935 466.99H654.02" stroke="#263238" stroke-linecap="round" stroke-linejoin="round"/>
<path d="M601.387 466.99H629.633" stroke="#263238" stroke-linecap="round" stroke-linejoin="round"/>
<path d="M561.283 466.99H595.625" stroke="#263238" stroke-linecap="round" stroke-linejoin="round"/>
<path d="M591.432 479.363H654.02" stroke="#263238" stroke-linecap="round" stroke-linejoin="round"/>
<path d="M561.283 479.363H585.67" stroke="#263238" stroke-linecap="round" stroke-linejoin="round"/>
<path d="M748.455 417.521H827.867" stroke="#263238" stroke-width="3" stroke-linecap="round" stroke-linejoin="round"/>
<path d="M826.452 429.895H835.121" stroke="#263238" stroke-linecap="round" stroke-linejoin="round"/>
<path d="M776.726 429.895H821.204" stroke="#263238" stroke-linecap="round" stroke-linejoin="round"/>
<path d="M742.384 429.895H772.019" stroke="#263238" stroke-linecap="round" stroke-linejoin="round"/>
<path d="M798.695 442.269H835.121" stroke="#263238" stroke-linecap="round" stroke-linejoin="round"/>
<path d="M778.81 442.269H792.958" stroke="#263238" stroke-linecap="round" stroke-linejoin="round"/>
<path d="M742.384 442.269H772.533" stroke="#263238" stroke-linecap="round" stroke-linejoin="round"/>
<path d="M762.063 454.616H835.121" stroke="#263238" stroke-linecap="round" stroke-linejoin="round"/>
<path d="M742.384 454.616H755.272" stroke="#263238" stroke-linecap="round" stroke-linejoin="round"/>
<path d="M817.037 466.99H835.121" stroke="#263238" stroke-linecap="round" stroke-linejoin="round"/>
<path d="M782.488 466.99H810.734" stroke="#263238" stroke-linecap="round" stroke-linejoin="round"/>
<path d="M742.384 466.99H776.726" stroke="#263238" stroke-linecap="round" stroke-linejoin="round"/>
<path d="M772.533 479.363H835.121" stroke="#263238" stroke-linecap="round" stroke-linejoin="round"/>
<path d="M742.384 479.363H766.771" stroke="#263238" stroke-linecap="round" stroke-linejoin="round"/>
<path d="M859.585 377.674H159.876V233.333H859.585V377.674Z" fill="#C2B2C2"/>
<path opacity="0.7" d="M859.585 377.674H159.876V233.333H859.585V377.674Z" fill="white"/>
<path d="M682.523 377.674H337.067V233.333H682.523V377.674Z" fill="#C2B2C2"/>
<path opacity="0.92" d="M682.523 377.674H337.067V233.333H682.523V377.674Z" fill="white"/>
<path d="M611.934 275.161H635.472" stroke="#263238" stroke-linecap="round" stroke-linejoin="round"/>
<path d="M477.189 275.161H597.76" stroke="#263238" stroke-linecap="round" stroke-linejoin="round"/>
<path d="M384.117 275.161H464.404" stroke="#263238" stroke-linecap="round" stroke-linejoin="round"/>
<path d="M536.767 287.535H635.472" stroke="#263238" stroke-linecap="round" stroke-linejoin="round"/>
<path d="M482.848 287.535H521.152" stroke="#263238" stroke-linecap="round" stroke-linejoin="round"/>
<path d="M384.117 287.535H465.844" stroke="#263238" stroke-linecap="round" stroke-linejoin="round"/>
<path d="M437.47 299.909H635.472" stroke="#263238" stroke-linecap="round" stroke-linejoin="round"/>
<path d="M384.117 299.909H419.025" stroke="#263238" stroke-linecap="round" stroke-linejoin="round"/>
<path d="M586.416 312.282H635.472" stroke="#263238" stroke-linecap="round" stroke-linejoin="round"/>
<path d="M492.778 312.282H569.386" stroke="#263238" stroke-linecap="round" stroke-linejoin="round"/>
<path d="M384.117 312.282H477.189" stroke="#263238" stroke-linecap="round" stroke-linejoin="round"/>
<path d="M465.844 324.63H635.472" stroke="#263238" stroke-linecap="round" stroke-linejoin="round"/>
<path d="M384.117 324.63H450.229" stroke="#263238" stroke-linecap="round" stroke-linejoin="round"/>
<path d="M859.585 686.215H159.876V541.874H859.585V686.215Z" fill="#C2B2C2"/>
<path opacity="0.7" d="M859.585 686.215H159.876V541.874H859.585V686.215Z" fill="white"/>
<path d="M776.777 596.796C776.777 596.796 735.798 613.26 729.367 615.292C722.936 617.324 722.55 620.103 722.55 628.926C722.55 637.75 723.759 677.546 723.759 680.761C723.759 683.977 723.347 689.996 723.347 689.996H857.604C857.604 689.996 848.755 653.982 843.533 636.978C838.311 619.974 840.729 618.482 831.494 612.874C822.259 607.266 798.052 599.214 792.907 598.005C787.572 597.168 782.178 596.764 776.777 596.796Z" fill="#263238" stroke="#263238" stroke-linecap="round" stroke-linejoin="round"/>
<path d="M778.784 592.372C778.784 592.372 769.137 591.574 765.124 599.626C761.111 607.678 751.464 626.431 751.464 626.431L763.118 633.66L749.561 640.58C751.825 650.504 754.642 660.295 757.999 669.906C760.333 676.213 763.013 682.388 766.025 688.402C766.025 688.402 785.575 666.304 793.293 659.461C798.381 654.593 802.593 648.884 805.743 642.586L795.711 633.351L812.998 631.344C812.998 631.344 808.573 608.861 802.939 599.626C797.306 590.391 778.784 592.372 778.784 592.372Z" fill="#263238" stroke="#263238" stroke-linecap="round" stroke-linejoin="round"/>
<path d="M759.053 670.163C759.774 672.169 760.545 674.073 761.291 675.745" stroke="white" stroke-width="0.5" stroke-linecap="round" stroke-linejoin="round"/>
<path d="M760.52 609.633L751.464 626.431L763.118 633.659L750.641 640.734C750.641 640.734 753.548 653.416 757.201 664.786" stroke="white" stroke-width="0.5" stroke-linecap="round" stroke-linejoin="round"/>
<path d="M806.155 602.018L812.921 631.344L795.634 633.351L805.666 642.586C805.666 642.586 786.373 665.198 778.372 674.33" stroke="white" stroke-width="0.5" stroke-linecap="round" stroke-linejoin="round"/>
<path d="M831.417 647.011L824.188 691.617" stroke="white" stroke-width="0.5" stroke-linecap="round" stroke-linejoin="round"/>
<path d="M732.197 638.984C732.197 638.984 731.399 665.892 731.785 674.33C732.104 679.679 733.187 684.954 735.001 689.996" stroke="white" stroke-width="0.5" stroke-linecap="round" stroke-linejoin="round"/>
<path d="M806.515 657.866L813.332 648.631L818.966 657.866H806.515Z" fill="white" stroke="#263238" stroke-miterlimit="10"/>
<path d="M814.541 569.477C814.541 569.477 821.358 568.679 822.979 578.737C824.6 588.796 819.763 601.632 803.685 601.632C787.608 601.632 788.842 589.568 789.228 580.744C789.614 571.92 814.541 569.477 814.541 569.477Z" fill="#263238" stroke="#263238" stroke-miterlimit="10"/>
<path d="M774.771 585.966C774.771 585.966 774.359 597.594 773.562 610.867C772.764 624.141 766.333 642.2 766.333 657.455C766.279 665.908 766.682 674.358 767.542 682.768C767.542 682.768 780.791 657.043 786.81 642.2C792.83 627.357 799.672 584.345 799.672 584.345L774.771 585.966Z" fill="white" stroke="#263238" stroke-miterlimit="10"/>
<path d="M814.13 559.547C817.121 553.689 818.773 547.24 818.966 540.665C818.966 530.632 816.959 516.973 805.306 510.927C793.653 504.882 771.144 508.921 765.536 520.574C761.75 528.023 759.976 536.332 760.391 544.678C760.796 549.19 761.738 553.637 763.195 557.926C763.195 557.926 764.816 550.209 775.646 546.299C786.476 542.389 798.155 538.247 803.763 541.154C809.371 544.061 814.13 559.547 814.13 559.547Z" fill="#263238" stroke="#263238" stroke-linecap="round" stroke-linejoin="round"/>
<path d="M763.529 555.431C763.529 555.431 758.693 548.202 756.687 553.424C754.68 558.646 757.51 566.287 760.7 567.882C763.889 569.476 765.536 568.679 765.536 568.679L763.529 555.431Z" fill="white" stroke="#263238" stroke-linecap="round" stroke-linejoin="round"/>
<path d="M814.13 556.64C814.13 556.64 819.763 551.006 819.763 556.228C819.48 561.075 817.68 565.709 814.618 569.477C812.2 572.692 810.991 571.097 810.991 571.097L814.13 556.64Z" fill="white" stroke="#263238" stroke-linecap="round" stroke-linejoin="round"/>
<path d="M804.586 533.513L808.573 522.272C808.73 521.832 808.706 521.347 808.505 520.925C808.305 520.503 807.946 520.178 807.505 520.021C807.065 519.864 806.581 519.888 806.159 520.089C805.737 520.289 805.411 520.648 805.255 521.088L801.91 530.478C798.392 529.646 794.74 529.541 791.18 530.169C787.619 530.797 784.224 532.145 781.202 534.131C770.758 540.974 762.32 546.993 762.32 546.993C762.32 546.993 762.732 569.888 767.131 578.326C771.53 586.763 779.196 596.796 785.627 596.796C792.058 596.796 803.299 582.75 807.724 578.326C812.149 573.901 814.953 556.64 814.953 551.006C814.953 546.967 808.316 538.17 804.586 533.513Z" fill="white" stroke="#263238" stroke-miterlimit="10"/>
<path d="M788.765 636.721C782.24 637.311 775.665 636.432 769.523 634.148C767.683 641.852 766.615 649.719 766.333 657.635C766.279 666.088 766.682 674.538 767.542 682.948C767.542 682.948 780.791 657.223 786.81 642.38C787.453 640.631 788.148 638.701 788.765 636.721Z" fill="#C2B2C2" stroke="#263238" stroke-miterlimit="10"/>
<path d="M598.892 575.47C588.645 576.633 578.469 578.351 568.408 580.615C556.652 583.651 550.993 584.963 550.993 590.622C550.993 596.282 549.681 620.669 545.848 631.576C542.015 642.483 537.565 658.149 537.565 663.809C537.565 669.468 545.848 693.418 545.848 693.418H561.077C561.077 693.418 555.417 665.532 555.417 662.934C555.417 660.336 563.263 637.21 563.263 637.21L563.701 694.267H643.447L642.598 639.808C642.598 639.808 649.544 662.034 649.544 665.944C649.544 669.854 646.971 695.579 646.971 695.579H662.097C662.097 695.579 669.506 667.282 669.069 657.249C668.631 647.216 661.351 615.421 660.374 605.8C659.396 596.179 665.159 590.982 654.714 584.448C644.27 577.914 620.295 574.004 615.073 573.567C609.63 573.674 604.211 574.312 598.892 575.47Z" fill="#C2B2C2" stroke="#263238" stroke-miterlimit="10"/>
<path d="M563.186 637.338L564.498 615.549L559.688 599.008" stroke="#263238" stroke-linecap="round" stroke-linejoin="round"/>
<path d="M642.469 612.077V639.936" stroke="#263238" stroke-linecap="round" stroke-linejoin="round"/>
<path d="M642.881 619.923L649.852 609.453" stroke="#263238" stroke-linecap="round" stroke-linejoin="round"/>
<path d="M606.301 605.105L603.702 693.521" stroke="#263238" stroke-linecap="round" stroke-linejoin="round"/>
<path d="M604.989 565.026C601.113 565.239 597.427 566.773 594.544 569.374C589.76 573.747 588.01 590.725 588.01 590.725C588.01 590.725 603.265 586.378 605.863 585.58C608.462 584.783 631.588 589.928 631.588 589.928C631.588 589.928 629.427 574.699 623.33 568.165C617.234 561.631 604.989 565.026 604.989 565.026Z" fill="#263238" stroke="#263238" stroke-linecap="round" stroke-linejoin="round"/>
<path d="M598.892 551.084C598.892 551.084 602.391 556.229 602.391 571.663C602.391 587.098 604.114 603.022 606.301 605.105C608.487 607.189 617.62 584.526 617.62 574.236C617.793 567.432 619.434 560.745 622.43 554.634C622.43 554.634 611.523 547.225 605.863 546.35C604.318 546.109 602.739 546.464 601.445 547.343C600.151 548.221 599.238 549.558 598.892 551.084Z" fill="white" stroke="#263238" stroke-linecap="round" stroke-linejoin="round"/>
<path d="M603.085 588.641C603.78 597.105 604.963 603.768 606.301 605.105C607.638 606.443 611.831 597.954 614.713 588.847C610.85 589.393 606.926 589.324 603.085 588.641Z" fill="#263238" stroke="#263238" stroke-linecap="round" stroke-linejoin="round"/>
<path d="M625.466 509.281C625.466 509.281 628.038 510.156 632.874 505.783C637.71 501.409 635.447 493.152 633.312 494.901C631.948 496.014 630.768 497.333 629.813 498.811C628.968 496.262 627.413 494.007 625.331 492.312C623.248 490.616 620.724 489.551 618.057 489.242C608.925 488.367 598.017 500.998 598.017 500.998C598.017 500.998 578.004 515.815 580.164 527.571C582.325 539.327 593.67 549.772 598.892 551.084C604.114 552.396 613.709 542.826 611.96 534.543C610.211 526.259 608.925 513.963 611.96 512.754C616.393 511.343 620.902 510.184 625.466 509.281Z" fill="#263238" stroke="#263238" stroke-linecap="round" stroke-linejoin="round"/>
<path d="M598.017 544.112C598.017 544.112 590.634 538.967 588.885 542.826C587.136 546.685 591.072 553.707 595.856 555.868C600.641 558.029 604.989 551.083 604.989 551.083C604.989 551.083 620.243 563.277 630.713 563.714C641.183 564.152 641.621 555.868 639.871 540.202C638.122 524.536 632.9 512.317 628.99 507.969C625.08 503.622 609.825 507.532 605.014 511.442C600.204 515.352 597.297 518.851 601.979 519.725C606.661 520.6 611.111 522.298 606.764 527.134C602.416 531.97 600.23 530.169 601.619 533.668C603.008 537.167 608.59 540.639 603.368 542.389L598.017 544.112Z" fill="white" stroke="#263238" stroke-linecap="round" stroke-linejoin="round"/>
<path d="M406.601 567.264C406.601 567.264 351.704 573.798 350.006 578.583C348.309 583.368 328.243 630.032 331.279 634.328C334.314 638.624 340.437 639.473 345.222 639.473C348.611 639.17 351.817 637.801 354.38 635.563L340.437 694.73H441.483L444.544 653.339C444.544 653.339 456.301 658.484 464.147 657.712C471.993 656.94 470.243 650.741 468.494 638.985C466.745 627.228 465.922 597.156 462.835 591.497C459.748 585.838 422.756 570.146 422.756 570.146L406.601 567.264Z" fill="#263238" stroke="#263238" stroke-linecap="round" stroke-linejoin="round"/>
<path d="M445.368 638.213V611.202L447.528 605.98" stroke="white" stroke-linecap="round" stroke-linejoin="round"/>
<path d="M357.364 615.549L361.737 597.259L360.862 593.349" stroke="white" stroke-linecap="round" stroke-linejoin="round"/>
<path d="M368.837 696.582C368.837 696.582 377.095 660.851 381.03 638.65C384.966 616.45 401.353 567.264 401.353 567.264L426.64 574.236C426.64 574.236 409.636 623.884 405.289 645.236C400.941 666.587 397.288 696.839 397.288 696.839L368.837 696.582Z" fill="#C2B2C2" stroke="#263238" stroke-miterlimit="10"/>
<path d="M404.851 562.12C404.851 562.12 397.443 562.12 394.819 567.265C392.195 572.409 388.722 592.526 388.722 592.526C388.722 592.526 404.414 585.555 405.726 585.555C407.038 585.555 413.135 585.992 416.17 589.465C419.206 592.938 425.765 601.221 425.765 601.221C425.765 601.221 435.772 585.117 433.174 574.673C432.283 571.231 430.33 568.157 427.591 565.889C424.852 563.622 421.468 562.275 417.919 562.042L404.851 562.12Z" fill="#C2B2C2" stroke="#263238" stroke-miterlimit="10"/>
<path d="M402.279 550.646C402.279 550.646 401.404 581.156 402.279 589.851C403.154 598.545 404.466 600.732 404.466 600.732C404.466 600.732 411.874 588.539 414.035 584.191C416.196 579.844 422.756 575.033 425.817 571.123C428.878 567.213 430.962 552.395 430.962 552.395C430.962 552.395 419.643 561.116 413.546 558.93C409.233 557.021 405.387 554.194 402.279 550.646Z" fill="white" stroke="#263238" stroke-linecap="round" stroke-linejoin="round"/>
<path d="M420.286 495.518C412.877 496.599 405.649 500.303 403.565 507.532C401.816 513.629 400.993 533.668 400.53 543.675C400.067 553.682 405.314 566.338 409.662 567.65C413.291 568.938 417.197 569.24 420.981 568.525C423.167 567.65 433.2 554.145 435.798 551.521C438.396 548.897 446.242 524.51 446.242 515.815C446.434 511.526 445.222 507.292 442.789 503.754C440.356 500.217 436.836 497.569 432.763 496.213C428.699 495.109 424.448 494.872 420.286 495.518Z" fill="white" stroke="#263238" stroke-linecap="round" stroke-linejoin="round"/>
<path d="M441.869 536.395C441.869 536.395 448.84 530.272 447.014 538.118C446.453 540.463 445.383 542.655 443.881 544.54C442.378 546.425 440.479 547.956 438.319 549.026L441.869 536.395Z" fill="white" stroke="#263238" stroke-linecap="round" stroke-linejoin="round"/>
<path d="M401.353 528.009C401.353 528.009 396.208 523.224 396.208 529.758C396.407 534.036 397.936 538.146 400.581 541.514L401.353 528.009Z" fill="white" stroke="#263238" stroke-linecap="round" stroke-linejoin="round"/>
<path d="M441.869 536.395C444.129 529.732 445.588 522.823 446.216 515.815C446.408 511.526 445.196 507.292 442.763 503.754C440.33 500.217 436.81 497.569 432.737 496.213C428.673 495.109 424.422 494.872 420.26 495.518C412.852 496.599 405.623 500.303 403.539 507.532C402.199 514.741 401.416 522.043 401.198 529.372C403.411 527.648 408.015 523.43 407.038 518.413C405.726 511.879 403.102 508.844 407.887 505.783C412.672 502.721 418.357 507.095 426.203 509.718C434.049 512.342 441.869 508.844 444.056 511.005C446.242 513.166 437.084 522.349 438.396 525.822C439.708 529.295 442.744 533.231 441.869 536.292V536.395Z" fill="#263238" stroke="#263238" stroke-linecap="round" stroke-linejoin="round"/>
<path d="M379.127 619.923C379.127 619.923 372.593 610.765 368.245 610.327C363.898 609.89 353.428 619.923 353.428 619.923H379.127Z" fill="white" stroke="#263238" stroke-linecap="round" stroke-linejoin="round"/>
<path d="M420.518 620.772H426.64L427.926 632.991L421.392 631.242L420.518 620.772Z" fill="white" stroke="#263238" stroke-linecap="round" stroke-linejoin="round"/>
<path d="M426.64 620.772L437.522 625.582L440.12 639.088L427.926 632.991L426.64 620.772Z" fill="white" stroke="#263238" stroke-linecap="round" stroke-linejoin="round"/>
<path d="M461.445 644.438L399.166 620.051C395.576 621.816 392.208 624.001 389.134 626.56C387.317 628.386 385.974 630.629 385.223 633.094C385.223 633.094 414.832 654.445 429.213 660.979C443.593 667.513 464.507 669.7 467.98 666.124C471.452 662.548 470.552 649.146 468.417 646.959C467.263 645.769 465.946 644.747 464.507 643.924" fill="#263238"/>
<path d="M461.445 644.438L399.166 620.051C395.576 621.816 392.208 624.001 389.134 626.56C387.317 628.386 385.974 630.629 385.223 633.094C385.223 633.094 414.832 654.445 429.213 660.979C443.593 667.513 464.507 669.7 467.98 666.124C471.452 662.548 470.552 649.146 468.417 646.959C467.263 645.769 465.946 644.747 464.507 643.924" stroke="#263238" stroke-linecap="round" stroke-linejoin="round"/>
<path d="M420.518 618.714L421.392 631.344C421.392 631.344 375.654 641.789 358.676 644.85C341.697 647.911 332.54 645.699 329.941 637.878C327.343 630.058 336.038 620.437 339.948 618.276C343.858 616.115 420.518 618.714 420.518 618.714Z" fill="#263238" stroke="#263238" stroke-linecap="round" stroke-linejoin="round"/>
<path d="M252.279 588.847C252.279 588.847 269.72 593.195 276.691 595.381C283.663 597.568 285.823 600.166 285.823 605.388C285.823 610.61 281.913 633.685 281.913 637.184V660.722C281.913 667.256 288.447 691.205 288.447 691.205H203.556C203.556 691.205 193.987 654.625 187.453 634.611C180.918 614.598 180.044 607.6 186.578 604.539C202.11 598.848 217.957 594.055 234.04 590.185C240.081 589.314 246.175 588.867 252.279 588.847Z" fill="#C2B2C2" stroke="#263238" stroke-miterlimit="10"/>
<path d="M277.566 617.582C277.566 617.582 282.711 641.557 281.039 650.252C279.367 658.947 267.533 692.08 267.533 692.08" stroke="#263238" stroke-linecap="round" stroke-linejoin="round"/>
<path d="M186.526 604.514C186.526 604.514 178.809 605.826 180.867 615.858C182.925 625.891 173.021 690.742 173.021 690.742H192.186C192.186 690.742 205.254 656.323 207.415 648.065C209.576 639.808 211.351 633.248 207.415 626.277" fill="#C2B2C2"/>
<path d="M186.526 604.514C186.526 604.514 178.809 605.826 180.867 615.858C182.925 625.891 173.021 690.742 173.021 690.742H192.186C192.186 690.742 205.254 656.323 207.415 648.065C209.576 639.808 211.351 633.248 207.415 626.277" stroke="#263238" stroke-miterlimit="10"/>
<path d="M267.688 546.427L270.543 635.152H244.793V554.068L267.688 546.427Z" fill="#263238" stroke="#263238" stroke-linecap="round" stroke-linejoin="round"/>
<path d="M234.426 610.199C234.426 610.199 241.834 643.641 244.896 653.75C247.957 663.86 248.368 687.192 247.468 690.331C246.568 693.469 258.35 690.331 258.35 690.331C258.35 690.331 261.411 667.179 263.16 653.75C264.909 640.322 259.662 614.983 259.662 614.983L254.002 592.757L232.651 596.693L234.426 610.199Z" fill="white" stroke="#263238" stroke-linecap="round" stroke-linejoin="round"/>
<path d="M253.076 573.592C251.862 580.526 252.01 587.63 253.513 594.507C256.086 604.102 263.109 621.517 257.012 626.302C250.915 631.087 242.632 628.489 238.284 619.768C233.937 611.047 230.001 589.284 230.001 571.432C230.001 553.579 231.75 550.517 237.847 550.517C243.944 550.517 253.076 573.592 253.076 573.592Z" fill="white" stroke="#263238" stroke-linecap="round" stroke-linejoin="round"/>
<path d="M240.522 565.335C236.605 568.74 231.998 571.259 227.017 572.718C220.483 574.03 217.01 556.614 216.135 539.276C215.261 521.938 219.634 512.265 228.766 507.918C237.899 503.57 260.125 505.731 268.845 509.204C277.566 512.677 288.01 518.362 288.01 527.494C288.01 536.626 276.228 544.112 272.755 546.17C269.283 548.228 260.999 551.315 255.777 556.614C251.265 560.425 246.095 563.38 240.522 565.335Z" fill="#263238" stroke="#263238" stroke-linecap="round" stroke-linejoin="round"/>
<path d="M240.522 565.335C240.522 565.335 245.667 578.403 255.34 578.815C265.012 579.226 275.919 557.052 276.254 547.456C276.588 537.861 266.659 521.32 266.659 521.32C266.659 521.32 249.68 560.087 240.522 565.335Z" fill="white" stroke="#263238" stroke-linecap="round" stroke-linejoin="round"/>
<path d="M237.924 545.733L238.773 639.808H209.601L216.135 530.478" fill="#263238"/>
<path d="M237.924 545.733L238.773 639.808H209.601L216.135 530.478" stroke="#263238" stroke-linecap="round" stroke-linejoin="round"/>
</svg>
