<svg width="1392" height="1037" viewBox="0 0 1392 1037" fill="none" xmlns="http://www.w3.org/2000/svg">
<path d="M696.257 1036.27C994.264 1036.27 1235.85 1022.16 1235.85 1004.76C1235.85 987.365 994.264 973.26 696.257 973.26C398.249 973.26 156.666 987.365 156.666 1004.76C156.666 1022.16 398.249 1036.27 696.257 1036.27Z" fill="#F5F5F5"/>
<path d="M917.611 948.733L937.414 953.604L933.785 987.405L915.799 985.53L917.611 948.733Z" fill="white" stroke="black"/>
<path d="M906.316 986.34C904.292 986.405 902.314 985.733 900.75 984.448C900.571 984.141 900.491 983.787 900.521 983.433C900.551 983.08 900.689 982.744 900.917 982.472C901.286 981.971 901.835 981.633 902.447 981.526C905.703 980.858 912.132 985.199 912.41 985.394C912.495 985.436 912.561 985.507 912.596 985.594C912.632 985.681 912.635 985.778 912.605 985.867C912.581 985.958 912.531 986.04 912.462 986.104C912.393 986.168 912.308 986.211 912.216 986.229C910.256 986.431 908.282 986.469 906.316 986.34ZM903.533 982.361C903.247 982.319 902.956 982.319 902.67 982.361C902.477 982.374 902.29 982.434 902.125 982.536C901.96 982.638 901.822 982.778 901.724 982.945C901.334 983.474 901.445 983.752 901.557 983.919C902.364 985.227 907.123 985.617 910.796 985.45C908.591 983.973 906.127 982.925 903.533 982.361Z" fill="#CFCECF"/>
<path d="M912.16 986.145C912.129 986.158 912.096 986.165 912.062 986.165C912.029 986.165 911.996 986.158 911.965 986.145C909.766 984.949 905.453 980.44 906.009 978.325C906.009 977.797 906.538 977.212 907.79 977.156C908.247 977.147 908.701 977.228 909.127 977.395C909.552 977.562 909.939 977.812 910.267 978.13C911.873 980.358 912.731 983.038 912.716 985.784C912.718 985.866 912.695 985.947 912.65 986.016C912.605 986.086 912.541 986.14 912.466 986.173C912.417 986.196 912.363 986.205 912.309 986.201C912.255 986.196 912.204 986.177 912.16 986.145ZM908.041 978.019H907.763C906.928 978.019 906.844 978.353 906.816 978.464C906.594 979.745 909.377 983.223 911.659 984.81C911.598 982.617 910.859 980.498 909.544 978.743C909.139 978.327 908.593 978.078 908.013 978.047L908.041 978.019Z" fill="#CFCECF"/>
<path d="M914.386 983.669L935.37 985.199C935.754 985.232 936.116 985.392 936.399 985.654C936.681 985.916 936.867 986.266 936.928 986.646L939.461 1003.98C939.524 1004.35 939.512 1004.73 939.427 1005.09C939.341 1005.46 939.184 1005.8 938.963 1006.1C938.742 1006.4 938.463 1006.66 938.142 1006.85C937.821 1007.04 937.465 1007.16 937.095 1007.21H936.511C928.969 1006.52 922.262 1005.6 912.856 1004.93C901.724 1004.12 904.507 1005.65 891.399 1004.93C883.523 1004.46 882.716 995.413 886.111 995.218C901.501 994.411 903.421 989.93 909.739 984.893C911.083 983.925 912.739 983.489 914.386 983.669Z" fill="#263238"/>
<path d="M985.463 603.264L951.873 806.421L940.741 976.822L912.299 973.316C912.299 973.316 907.29 888.073 912.049 798.573C916.362 717.728 930.361 633.376 932.392 606.409L942.912 587.791L963.868 590.379L985.463 603.264Z" fill="#CFCECF"/>
<path d="M1091.62 952.644L1091.62 952.644L1091.62 952.64C1090.62 950.899 1089.57 949.021 1088.45 947.039C1088.32 946.806 1088.19 946.571 1088.06 946.335L1104.59 939.105L1104.92 939.867C1105.78 941.923 1106.59 943.844 1107.37 945.626C1109.3 950.3 1110.88 954.111 1111.98 956.754C1112.53 958.076 1112.95 959.106 1113.24 959.805L1113.51 960.448L1099.98 967.447C1099.89 967.283 1099.77 967.071 1099.62 966.812C1099.23 966.123 1098.65 965.104 1097.91 963.792C1096.42 961.166 1094.27 957.361 1091.62 952.644Z" fill="white" stroke="black"/>
<path d="M1089.27 967.611C1087.52 968.635 1085.47 968.991 1083.48 968.613C1083.18 968.425 1082.94 968.147 1082.8 967.818C1082.66 967.489 1082.62 967.125 1082.7 966.776C1082.77 966.163 1083.08 965.603 1083.56 965.217C1086.15 963.074 1093.86 963.798 1094.19 963.854C1094.29 963.857 1094.38 963.891 1094.46 963.951C1094.53 964.011 1094.59 964.094 1094.61 964.188C1094.62 964.281 1094.61 964.376 1094.58 964.463C1094.54 964.551 1094.49 964.628 1094.42 964.689C1092.78 965.796 1091.06 966.773 1089.27 967.611ZM1084.93 965.44C1084.65 965.556 1084.4 965.716 1084.18 965.913C1084.02 966.017 1083.88 966.156 1083.79 966.32C1083.69 966.485 1083.63 966.669 1083.62 966.859C1083.62 967.527 1083.76 967.722 1083.92 967.806C1085.26 968.585 1089.71 966.609 1092.8 964.716C1090.16 964.469 1087.48 964.714 1084.93 965.44Z" fill="#CFCECF"/>
<path d="M1094.36 964.689C1094.3 964.71 1094.23 964.71 1094.17 964.689C1091.63 964.689 1085.68 962.796 1085.18 960.653C1085.01 960.152 1085.18 959.401 1086.18 958.761C1086.98 958.306 1087.93 958.186 1088.82 958.427C1091.91 959.262 1094.53 963.798 1094.64 963.993C1094.68 964.058 1094.71 964.136 1094.71 964.216C1094.71 964.295 1094.68 964.373 1094.64 964.438C1094.62 964.503 1094.59 964.562 1094.54 964.606C1094.49 964.651 1094.43 964.68 1094.36 964.689ZM1086.82 959.512H1086.57C1085.85 959.93 1085.96 960.236 1085.96 960.375C1086.4 961.6 1090.52 963.353 1093.28 963.659C1092.17 961.758 1090.51 960.242 1088.52 959.318C1087.97 959.11 1087.37 959.11 1086.82 959.318V959.512Z" fill="#CFCECF"/>
<path d="M1096.34 961.099L1111.53 954.058C1111.88 953.898 1112.28 953.864 1112.65 953.96C1113.03 954.056 1113.36 954.277 1113.59 954.587L1124.11 968.641C1124.34 968.933 1124.51 969.268 1124.61 969.627C1124.7 969.985 1124.73 970.36 1124.68 970.728C1124.63 971.096 1124.51 971.451 1124.32 971.771C1124.13 972.091 1123.88 972.371 1123.58 972.592C1123.42 972.721 1123.24 972.824 1123.05 972.898C1116.1 975.904 1113.76 976.683 1105.16 980.579C1094.97 985.171 1098.12 985.227 1086.23 990.793C1079.05 994.16 1074.05 986.563 1076.91 984.782C1090.1 976.656 1094.78 961.683 1096.34 961.099Z" fill="#263238"/>
<path d="M954.238 602.095C954.238 602.095 989.304 772.302 1006.09 813.045C1021 849.223 1087.15 951.024 1087.15 951.024L1107.8 940.727C1107.8 940.727 1084.84 875.717 1062.77 833.945C1055.07 819.39 1047.05 808.202 1043.63 800.354C1039.09 789.974 1040.48 618.236 1014.74 601.288L954.238 602.095Z" fill="#CFCECF"/>
<path opacity="0.2" d="M970.408 689.703L958.83 762.506C955.825 720.761 961.613 656.53 961.613 656.53L970.408 689.703Z" fill="black"/>
<path d="M929.414 577.995C930.255 570.725 930.451 563.396 929.999 556.093C924.071 486.657 923.987 479.867 924.572 467.65C924.621 466.576 924.993 465.543 925.638 464.684C926.283 463.825 927.173 463.181 928.19 462.835C976.196 446.388 1018.14 454.124 1028.99 460.219C1043.46 468.345 1037.7 476.917 1037.53 479.561C1036.17 500.155 1022.89 540.925 1022.7 574.182C1022.7 579.08 1023.2 590.88 1023.53 597.392C1023.61 598.676 1023.22 599.944 1022.44 600.965C1021.66 601.986 1020.53 602.693 1019.28 602.958C1008.48 605.212 956.687 605.741 947.81 605.574C941.93 605.452 936.059 605.034 930.221 604.321C929.489 604.219 928.786 603.967 928.156 603.581C927.525 603.195 926.982 602.683 926.559 602.077C926.135 601.471 925.842 600.784 925.696 600.059C925.551 599.334 925.556 598.587 925.713 597.865C927.021 591.909 929.025 582.336 929.414 577.995Z" fill="#263238"/>
<path d="M959.248 459.442C959.331 459.345 959.4 459.271 959.449 459.221C965.364 457.631 968.404 455.575 969.579 452.718C970.167 451.29 970.264 449.716 970.08 447.999C969.905 446.37 969.474 444.581 968.94 442.63L987.746 425.803C986.929 430.926 986.213 436.997 986.502 442.67C986.812 448.755 988.284 454.498 992.152 458.085C992.145 458.142 992.135 458.209 992.121 458.288C992.067 458.582 991.958 459.029 991.733 459.612C991.285 460.778 990.374 462.492 988.524 464.611C984.85 468.817 977.473 474.612 962.674 480.839C957.266 473.386 956.526 467.952 957.084 464.419C957.368 462.621 957.991 461.292 958.537 460.416C958.81 459.978 959.065 459.654 959.248 459.442Z" fill="white" stroke="black"/>
<path opacity="0.2" d="M980.343 431.749L968.543 442.519C969.1 444.449 969.491 446.423 969.712 448.419C974.304 447.64 981.4 443.577 982.235 438.567C982.183 436.172 981.532 433.828 980.343 431.749Z" fill="black"/>
<path d="M1001.55 393.759C1002.59 397.776 1002.59 401.994 1001.54 406.011L1001.54 406.01C1001.36 406.722 1001.19 407.417 1001.03 408.095C999.123 415.879 997.739 421.545 995.69 426.136C993.478 431.093 990.492 434.794 985.204 438.503L985.203 438.503C969.34 449.662 949.036 440.557 948.031 422.354C947.589 414.078 949.178 403.401 953.21 394.334C957.244 385.26 963.677 377.895 972.872 376.034L972.872 376.034L972.877 376.033C976.944 375.168 981.164 375.358 985.136 376.584C989.109 377.81 992.702 380.032 995.574 383.038C998.446 386.044 1000.5 389.734 1001.55 393.759Z" fill="white" stroke="black"/>
<path d="M996.651 452.816L993.506 452.287L975.89 461.917L970.324 462.139L959.86 453.262L956.381 454.096C953.125 464.171 952.512 474.914 954.6 485.294L960.639 514.988L966.873 547.465L968.181 544.487L973.079 533.355L979.786 520.582L992.003 489.329L995.454 476.472C997.533 468.787 997.885 460.737 996.484 452.9L996.651 452.816Z" fill="#263238"/>
<path opacity="0.1" d="M977.643 462.139C958.775 462.362 956.66 455.405 956.66 455.405V453.763C956.66 453.763 951.094 464.477 967.374 466.342C983.654 468.206 994.647 460.442 996.957 455.766C995.148 458.243 990.278 462 977.643 462.139Z" fill="black"/>
<path d="M1001.88 423.985C1006.7 420.2 1006.14 413.827 1008.98 408.428C1013.91 399.049 1008.98 395.153 1008.98 395.153C1013.15 389.337 1009.68 381.238 1001.77 382.101C999.253 377.387 995.841 373.209 991.725 369.8C987.936 367.277 983.429 366.057 978.885 366.323C974.341 366.589 970.007 368.327 966.539 371.275C965.992 370.745 965.335 370.341 964.615 370.091C963.895 369.841 963.129 369.751 962.371 369.828C961.613 369.905 960.881 370.146 960.226 370.536C959.57 370.925 959.008 371.453 958.578 372.082C958.149 372.712 957.861 373.427 957.737 374.179C957.613 374.931 957.654 375.701 957.858 376.435C958.062 377.17 958.425 377.85 958.919 378.43C959.414 379.01 960.03 379.474 960.723 379.791C963.399 383.414 967.132 386.117 971.409 387.528C976.975 389.532 986.744 390.005 992.643 391.146C992.276 395.977 991.616 400.782 990.668 405.534C989.492 415.09 989.492 424.754 990.668 434.31C994.703 431.054 1001.19 428.938 1001.88 423.985Z" fill="#263238"/>
<path d="M1001.3 418.419C1000.51 419.814 999.451 421.039 998.185 422.023C996.919 423.007 995.471 423.731 993.924 424.152C989.777 425.265 987.745 421.536 988.942 417.584C990.027 414.077 993.506 409.235 997.681 409.819C998.592 409.984 999.449 410.374 1000.17 410.954C1000.89 411.533 1001.46 412.284 1001.82 413.138C1002.18 413.992 1002.32 414.923 1002.23 415.845C1002.14 416.767 1001.82 417.652 1001.3 418.419Z" fill="white"/>
<path d="M993.339 405.868L981.261 403.836C980.231 400.747 975.89 400.023 974.053 399.69C972.216 399.356 967.513 398.604 965.704 401.582L961.502 400.858C960.723 397.463 956.103 396.656 954.183 396.35C952.262 396.044 945.834 394.958 945.082 400.079C944.819 402.213 945.388 404.365 946.672 406.09C947.956 407.814 949.856 408.976 951.975 409.335C954.095 409.693 956.271 409.221 958.051 408.015C959.831 406.809 961.077 404.963 961.53 402.862C961.53 402.556 961.53 402.305 961.53 402.027L965.12 402.639C965.038 402.904 964.973 403.174 964.925 403.446C964.661 405.58 965.231 407.733 966.515 409.457C967.799 411.181 969.698 412.343 971.818 412.702C973.938 413.061 976.114 412.588 977.893 411.382C979.673 410.177 980.919 408.331 981.372 406.229C981.413 405.841 981.413 405.449 981.372 405.061L993.061 407.037C994.663 407.298 996.121 408.116 997.18 409.346L998.014 408.595C996.815 407.177 995.164 406.214 993.339 405.868ZM952.207 407.704C951.322 407.614 950.464 407.35 949.681 406.928C948.898 406.505 948.207 405.932 947.646 405.242C947.085 404.552 946.665 403.758 946.412 402.905C946.158 402.053 946.075 401.159 946.168 400.274C946.641 397.491 948.951 396.628 953.932 397.491C958.914 398.354 960.834 399.884 960.361 402.695C959.931 404.416 958.848 405.901 957.341 406.836C955.835 407.772 954.023 408.083 952.29 407.704H952.207ZM972.133 411.072C970.352 410.875 968.72 409.986 967.589 408.595C966.459 407.204 965.922 405.425 966.094 403.641C966.567 400.858 968.877 399.996 973.858 400.858C978.84 401.721 980.732 403.252 980.259 406.062C979.836 407.799 978.746 409.298 977.225 410.236C975.704 411.174 973.874 411.474 972.133 411.072Z" fill="#263238"/>
<path d="M956.715 449.338V456.295C956.715 456.295 958.83 463.252 977.699 463.058C996.567 462.863 998.154 454.514 998.154 454.514V449.477C998.162 448.618 997.978 447.768 997.617 446.989C997.255 446.209 996.725 445.52 996.064 444.972C995.403 444.423 994.629 444.028 993.796 443.815C992.964 443.603 992.095 443.579 991.252 443.744C981.931 445.209 972.438 445.209 963.116 443.744C962.322 443.659 961.519 443.739 960.758 443.98C959.997 444.22 959.294 444.616 958.692 445.141C958.091 445.666 957.605 446.31 957.265 447.033C956.925 447.755 956.738 448.54 956.715 449.338Z" fill="#263238"/>
<path d="M808.359 415.009C808.328 414.828 808.306 414.684 808.291 414.583C808.348 414.495 808.429 414.372 808.532 414.218C808.754 413.889 809.078 413.419 809.485 412.862C810.298 411.746 811.439 410.287 812.75 408.9C814.065 407.509 815.531 406.214 816.994 405.406C818.461 404.596 819.842 404.318 821.055 404.801C823.665 405.843 825.368 408.804 826.424 411.659C826.944 413.067 827.293 414.408 827.511 415.398C827.619 415.893 827.695 416.299 827.744 416.58C827.769 416.72 827.786 416.83 827.797 416.903C827.803 416.94 827.807 416.968 827.81 416.986L827.813 417.006L827.813 417.011L827.813 417.012L827.814 417.012L827.814 417.012L827.849 417.272L828.083 417.39C830.79 418.758 833.096 420.802 834.78 423.325C836.428 425.795 837.423 428.641 837.675 431.598L832.349 438.56L820.76 432.092L820.719 432.069L820.674 432.054C815.354 430.294 812.249 425.926 810.467 421.927C809.579 419.933 809.028 418.048 808.699 416.661C808.535 415.968 808.426 415.401 808.359 415.009Z" fill="white" stroke="black"/>
<path d="M844.227 437.009L840.971 429.022C834.123 430.469 828.072 434.444 824.023 440.154L831.704 446.499L844.227 437.009Z" fill="#CFCECF"/>
<path d="M844.144 435.367C855.352 450.279 869.222 462.988 885.054 472.854C903.081 465.727 922.402 462.457 941.771 463.252L931.056 487.659C931.056 487.659 894.878 500.294 877.15 495.758C863.235 492.168 839.051 459.301 829.617 445.803C833.594 441.255 838.565 437.685 844.144 435.367Z" fill="#263238"/>
<path d="M1081.33 607.565C1081.24 607.726 1081.17 607.852 1081.11 607.941C1081.02 607.973 1080.88 608.018 1080.7 608.072C1080.32 608.19 1079.78 608.352 1079.11 608.531C1077.78 608.888 1075.98 609.309 1074.09 609.566C1072.19 609.824 1070.24 609.913 1068.6 609.625C1066.94 609.337 1065.69 608.689 1065.05 607.553C1063.66 605.112 1064.19 601.739 1065.15 598.852C1065.63 597.429 1066.2 596.166 1066.66 595.257C1066.88 594.803 1067.08 594.439 1067.22 594.189C1067.28 594.065 1067.34 593.969 1067.38 593.904C1067.4 593.872 1067.41 593.848 1067.42 593.832L1067.43 593.814L1067.43 593.81L1067.43 593.809L1067.43 593.809L1067.43 593.809L1067.57 593.584L1067.46 593.344C1066.2 590.585 1065.68 587.547 1065.95 584.526C1066.21 581.568 1067.21 578.726 1068.87 576.263L1077.39 574.159L1082.38 586.476L1082.39 586.52L1082.42 586.56C1085.46 591.247 1085.14 596.597 1084.02 600.837C1083.46 602.951 1082.71 604.77 1082.1 606.06C1081.79 606.705 1081.52 607.216 1081.33 607.565Z" fill="white" stroke="black"/>
<path d="M1067.17 567.948L1064.72 576.297C1070.98 579.455 1078.2 580.121 1084.93 578.161L1082.92 568.421L1067.17 567.948Z" fill="#CFCECF"/>
<path d="M1066.2 569.284C1066.81 550.642 1063.98 532.046 1057.85 514.431C1057.85 514.431 1020.83 492.418 1009.42 480.591C1007.91 479.012 1006.78 477.104 1006.13 475.015C1005.48 472.926 1005.32 470.715 1005.68 468.555C1006.03 466.396 1006.87 464.348 1008.15 462.573C1009.43 460.797 1011.11 459.344 1013.04 458.327C1015.36 457.122 1017.97 456.583 1020.58 456.77C1023.19 456.956 1025.69 457.861 1027.82 459.384C1041.32 469.153 1070.09 490.581 1078.36 501.602C1086.99 513.151 1085.21 553.866 1084.09 570.314C1078.13 571.343 1072.01 570.991 1066.2 569.284Z" fill="#263238"/>
<path d="M1066.2 569.284C1066.81 550.642 1063.98 532.046 1057.85 514.431C1057.85 514.431 1020.83 492.418 1009.42 480.591C1007.91 479.012 1006.78 477.104 1006.13 475.015C1005.48 472.926 1005.32 470.715 1005.68 468.555C1006.03 466.396 1006.87 464.348 1008.15 462.573C1009.43 460.797 1011.11 459.344 1013.04 458.327C1015.36 457.122 1017.97 456.583 1020.58 456.77C1023.19 456.956 1025.69 457.861 1027.82 459.384C1041.32 469.153 1070.09 490.581 1078.36 501.602C1086.99 513.151 1085.21 553.866 1084.09 570.314C1078.13 571.343 1072.01 570.991 1066.2 569.284Z" fill="#263238"/>
<path d="M452.886 675.371L471.337 763.563L439.221 765.205L452.886 675.371Z" fill="#CFCECF"/>
<path opacity="0.6" d="M452.886 675.371L471.337 763.563L439.221 765.205L452.886 675.371Z" fill="white"/>
<path d="M480.408 946.984L499.85 948.807L498.792 985.557L482.25 985.399L480.408 946.984Z" fill="white" stroke="black"/>
<path d="M502.562 985.283C502.47 985.251 502.389 985.195 502.325 985.122C502.262 985.049 502.219 984.96 502.2 984.865C502.184 984.769 502.197 984.671 502.237 984.582C502.276 984.493 502.341 984.417 502.423 984.364C502.701 984.17 509.297 980.051 512.469 981.025C512.776 981.113 513.062 981.262 513.311 981.463C513.56 981.664 513.765 981.912 513.916 982.194C514.126 982.512 514.237 982.884 514.237 983.265C514.237 983.646 514.126 984.018 513.916 984.337C513.165 985.45 510.716 985.923 508.35 985.895C506.406 985.867 504.469 985.662 502.562 985.283ZM504.037 984.615C507.571 985.116 512.386 985.116 513.248 983.752C513.248 983.585 513.471 983.279 513.248 982.667C513.157 982.495 513.03 982.344 512.877 982.224C512.724 982.105 512.547 982.018 512.358 981.971C512.072 981.93 511.781 981.93 511.495 981.971C508.852 982.324 506.312 983.225 504.037 984.615Z" fill="#CFCECF"/>
<path d="M502.339 985.255C502.272 985.202 502.217 985.134 502.178 985.057C502.14 984.98 502.119 984.896 502.117 984.81C502.117 984.531 502.59 978.91 504.899 976.739C505.232 976.428 505.629 976.195 506.062 976.055C506.495 975.916 506.953 975.874 507.404 975.932C508.656 976.071 509.046 976.739 509.102 977.323C509.519 979.661 505.011 984.169 502.757 985.255H502.562C502.489 985.277 502.412 985.277 502.339 985.255ZM507.209 976.906C506.631 976.905 506.074 977.124 505.651 977.518C504.233 979.36 503.382 981.574 503.202 983.891C505.54 982.388 508.489 978.854 508.35 977.435C508.35 977.435 508.35 976.962 507.46 976.878L507.209 976.906Z" fill="#CFCECF"/>
<path d="M500.614 982.36H479.853C479.458 982.373 479.08 982.521 478.781 982.78C478.482 983.038 478.281 983.391 478.211 983.78L474.509 1002.4C474.326 1003.17 474.442 1003.98 474.835 1004.67C475.228 1005.35 475.868 1005.87 476.625 1006.1H477.209C484.751 1006.1 491.458 1005.57 500.836 1005.63C511.968 1005.63 509.185 1007.13 522.126 1007.41C529.946 1007.55 531.199 997.75 527.887 997.249C512.692 995.079 511.05 990.014 505.122 984.058C503.903 982.919 502.282 982.309 500.614 982.36Z" fill="#263238"/>
<path d="M390.731 935.553L409.116 942.236L399.355 977.405L383.418 973.04L390.731 935.553Z" fill="white" stroke="black"/>
<path d="M402.403 979.661C402.31 979.631 402.23 979.571 402.174 979.49C402.119 979.41 402.092 979.313 402.096 979.216C402.094 979.115 402.122 979.017 402.177 978.932C402.231 978.848 402.31 978.782 402.403 978.743C402.736 978.743 409.944 975.96 412.894 977.407C413.464 977.705 413.894 978.214 414.091 978.826C414.238 979.175 414.284 979.558 414.225 979.931C414.166 980.305 414.004 980.655 413.757 980.941C412.875 981.396 411.911 981.67 410.922 981.747C409.932 981.823 408.938 981.701 407.996 981.387C406.077 981.007 404.202 980.428 402.403 979.661ZM403.933 979.299C407.328 980.468 412.032 981.387 413.145 980.218C413.145 980.079 413.451 979.828 413.145 979.132C413.093 978.944 412.998 978.771 412.868 978.626C412.737 978.481 412.575 978.368 412.393 978.297C412.142 978.154 411.87 978.051 411.586 977.991C409.012 977.937 406.45 978.381 404.044 979.299H403.933Z" fill="#CFCECF"/>
<path d="M402.152 979.605C402.119 979.531 402.102 979.45 402.102 979.369C402.102 979.287 402.119 979.207 402.152 979.132C402.152 978.882 403.711 973.566 406.466 971.785C406.845 971.54 407.274 971.384 407.722 971.326C408.17 971.268 408.625 971.311 409.054 971.451C410.251 971.813 410.501 972.564 410.445 973.149C410.445 975.514 405.186 979.049 402.764 979.689H402.57C402.425 979.709 402.278 979.68 402.152 979.605ZM408.497 972.23C408.217 972.171 407.927 972.167 407.646 972.219C407.364 972.272 407.095 972.38 406.855 972.537C405.123 974.066 403.875 976.068 403.265 978.297C405.853 977.268 409.388 974.373 409.527 972.982C409.527 972.843 409.527 972.481 408.748 972.258L408.497 972.23Z" fill="#CFCECF"/>
<path d="M401.011 976.433L380.695 972.37C380.306 972.295 379.903 972.364 379.56 972.563C379.217 972.763 378.958 973.079 378.831 973.455L371.79 990.932C371.47 991.653 371.432 992.468 371.684 993.216C371.937 993.963 372.461 994.589 373.154 994.967L373.71 995.162C381.113 996.498 387.625 997.361 396.92 999.225C407.746 1001.42 404.74 1002.29 417.486 1005.07C425.167 1006.74 428.229 997.361 425.056 996.22C410.501 991.183 409.833 985.923 405.13 978.938C404.136 977.598 402.658 976.699 401.011 976.433Z" fill="#263238"/>
<path d="M487.2 622.939C487.2 622.939 506.681 771.411 508.74 818.749C510.298 855.819 508.183 956.562 508.183 956.562L476.875 956.256L476.235 943.315C472.132 858.552 461.017 774.274 443.006 691.345L429.091 626.669L487.2 622.939Z" fill="#CFCECF"/>
<path d="M487.2 622.939C487.2 622.939 506.681 771.411 508.74 818.749C510.298 855.819 508.183 956.562 508.183 956.562L476.875 956.256L476.235 943.315C472.132 858.552 461.017 774.274 443.006 691.345L429.091 626.669L487.2 622.939Z" fill="#263238"/>
<path opacity="0.1" d="M444.676 719.342L457.617 658.283L459.537 666.131C468.666 703.463 470.5 742.207 464.936 780.233L462.57 796.291C460.706 787.72 452.218 741.244 444.676 719.342Z" fill="black"/>
<path d="M466.467 623.413C466.467 623.413 456.114 804.139 450.798 831.885C444.592 864.529 410.501 950.495 410.501 950.495L386.345 943.955C386.345 943.955 396.837 877.498 403.321 838.008C408.887 804.389 410.668 746.726 412.004 708.933C412.004 708.933 403.655 646.205 409.221 630.008L466.467 623.413Z" fill="#263238"/>
<path d="M466.467 623.413C466.467 623.413 456.114 804.139 450.798 831.885C444.592 864.529 410.501 950.495 410.501 950.495L386.345 943.955C386.345 943.955 396.837 877.498 403.321 838.008C408.887 804.389 410.668 746.726 412.004 708.933C412.004 708.933 403.655 646.205 409.221 630.008L466.467 623.413Z" fill="#263238"/>
<path d="M420.158 945.486L413.535 959.512L379.36 949.243L381.002 936.831L420.158 945.486Z" fill="#CFCECF"/>
<path d="M511.467 949.41L510.438 964.744L472.339 964.021L471.281 949.661L511.467 949.41Z" fill="#CFCECF"/>
<path d="M561.879 432.53L555.985 442.771L546.408 436.897L553.642 424.741L553.723 424.605L553.71 424.446L553.349 419.942C553.291 418.985 553.444 418.026 553.796 417.134C554.149 416.24 554.694 415.435 555.392 414.775L555.392 414.775L555.396 414.771L557.119 413.104C558.376 411.922 559.186 410.343 559.412 408.633C559.611 407.17 560.298 405.816 561.364 404.792C562.429 403.769 563.81 403.137 565.281 402.998L565.283 402.998L568.397 402.692C568.397 402.692 568.398 402.692 568.398 402.692C570.093 402.538 571.784 403.028 573.133 404.065C574.483 405.103 575.392 406.611 575.678 408.288C575.678 408.289 575.678 408.289 575.679 408.29L577.125 416.998L577.125 416.998L577.127 417.005C577.347 418.221 577.221 419.475 576.764 420.623C576.307 421.769 575.537 422.765 574.543 423.496L562.023 432.371L561.934 432.435L561.879 432.53Z" fill="white" stroke="black"/>
<path d="M559.251 443.271L562.535 436.898L548.091 427.964L544.974 435.2L559.251 443.271Z" fill="#263238"/>
<path opacity="0.7" d="M559.251 443.271L562.535 436.898L548.091 427.964L544.974 435.2L559.251 443.271Z" fill="white"/>
<path d="M457.895 484.264L481.3 484.654C492.753 482.604 503.612 478.049 513.1 471.314C522.587 464.578 530.469 455.829 536.18 445.692L544.752 430.525L562.479 442.547L544.251 476.694C541.345 482.543 537.159 487.661 532.004 491.67C526.849 495.678 520.857 498.474 514.473 499.849L462.877 513.457L457.895 484.264Z" fill="#263238"/>
<path opacity="0.5" d="M457.895 484.264L481.3 484.654C492.753 482.604 503.612 478.049 513.1 471.314C522.587 464.578 530.469 455.829 536.18 445.692L544.752 430.525L562.479 442.547L544.251 476.694C541.345 482.543 537.159 487.661 532.004 491.67C526.849 495.678 520.857 498.474 514.473 499.849L462.877 513.457L457.895 484.264Z" fill="white"/>
<path opacity="0.2" d="M517.506 498.708L465.242 513.095L464.713 508.03L473.786 505.971L517.506 498.708Z" fill="black"/>
<path d="M485.808 512.066L491.374 625.973C466.717 633.543 452.858 633.682 415.065 633.709L406.299 632.875L390.992 514.32C390.526 510.603 391.446 506.845 393.577 503.765C395.708 500.684 398.9 498.497 402.542 497.622L457.505 484.013L471.699 486.073C481.022 483.819 485.363 502.465 485.808 512.066Z" fill="white"/>
<path d="M329.109 636.608L329.109 636.608L329.109 636.608L329.202 636.579L329.277 636.517L339.16 628.395L348.259 633.978L342.908 644.492L342.902 644.502L342.865 644.565C342.833 644.621 342.784 644.704 342.72 644.811C342.593 645.023 342.406 645.331 342.168 645.708C341.692 646.462 341.014 647.49 340.207 648.588C338.577 650.805 336.478 653.225 334.485 654.308C333.087 655.045 331.526 655.414 329.947 655.382C328.367 655.349 326.821 654.916 325.454 654.122L325.454 654.122C323.577 653.032 321.523 651.633 320.04 650.08C318.543 648.511 317.731 646.895 318.066 645.336L318.066 645.336C318.36 643.971 319.165 642.74 320.25 641.65C321.335 640.56 322.677 639.634 323.996 638.882C325.314 638.131 326.595 637.561 327.548 637.179C328.023 636.989 328.416 636.845 328.689 636.75C328.825 636.702 328.931 636.666 329.003 636.643C329.038 636.631 329.065 636.622 329.083 636.616L329.103 636.61L329.108 636.609L329.109 636.608Z" fill="white" stroke="black"/>
<path d="M340.509 621.464L337.448 626.752L350.25 635.741L354.368 629.229L340.509 621.464Z" fill="black"/>
<path opacity="0.7" d="M340.509 621.464L337.448 626.752L350.25 635.741L354.368 629.229L340.509 621.464Z" fill="white"/>
<path d="M388.209 511.008L369.146 578.635L337.838 621.576L354.675 631.956L395 587.234L416.624 522.864C416.624 522.864 417.097 495.229 400.788 499.125C397.867 499.899 395.186 501.392 392.988 503.468C390.791 505.543 389.148 508.135 388.209 511.008Z" fill="#263238"/>
<path opacity="0.5" d="M388.209 511.008L369.146 578.635L337.838 621.576L354.675 631.956L395 587.234L416.624 522.864C416.624 522.864 417.097 495.229 400.788 499.125C397.867 499.899 395.186 501.392 392.988 503.468C390.791 505.543 389.148 508.135 388.209 511.008Z" fill="white"/>
<path opacity="0.2" d="M395 587.178L396.169 583.728L396.531 544.182L387.152 595.889L395 587.178Z" fill="black"/>
<path d="M422.551 635.797C422.551 637.3 422.551 638.803 422.551 640.361C422.551 642.643 422.412 645.009 422.356 647.402L393.914 647.151C394.36 641.697 394.731 636.233 395.028 630.76C395.028 630.454 395.028 630.175 395.028 629.869C395.25 626.159 395.417 622.448 395.529 618.737C396.805 583.801 395.279 548.818 390.965 514.125C390.924 513.467 390.924 512.807 390.965 512.149C391.01 508.762 392.18 505.486 394.291 502.836C396.402 500.186 399.334 498.313 402.625 497.511L420.102 493.17C420.102 493.17 420.909 516.296 421.661 543.263C422.412 570.23 423.191 601.065 423.08 616.483C422.857 621.882 422.746 628.394 422.551 635.797Z" fill="#263238"/>
<path opacity="0.5" d="M422.551 635.797C422.551 637.3 422.551 638.803 422.551 640.361C422.551 642.643 422.412 645.009 422.356 647.402L393.914 647.151C394.36 641.697 394.731 636.233 395.028 630.76C395.028 630.454 395.028 630.175 395.028 629.869C395.25 626.159 395.417 622.448 395.529 618.737C396.805 583.801 395.279 548.818 390.965 514.125C390.924 513.467 390.924 512.807 390.965 512.149C391.01 508.762 392.18 505.486 394.291 502.836C396.402 500.186 399.334 498.313 402.625 497.511L420.102 493.17C420.102 493.17 420.909 516.296 421.661 543.263C422.412 570.23 423.191 601.065 423.08 616.483C422.857 621.882 422.746 628.394 422.551 635.797Z" fill="white"/>
<path d="M497.218 635.491L471.337 641.279L457.422 483.986L471.615 486.045C481.049 483.707 485.391 502.353 485.864 511.954L487.534 549.33C487.534 551.139 487.701 552.92 487.812 554.757C487.812 556.092 487.979 557.54 488.035 558.82C488.202 561.13 488.341 563.467 488.508 565.777C488.508 567.503 488.758 569.228 488.897 570.954C489.454 578.189 490.15 585.369 490.957 592.577C491.764 599.785 492.682 606.492 493.74 613.617C493.74 613.951 493.74 614.312 493.74 614.674C494.714 621.381 495.827 628.032 497.024 634.711C497.135 635.073 497.191 635.324 497.218 635.491Z" fill="#263238"/>
<g opacity="0.5">
<path d="M497.218 635.491L471.337 641.279L457.422 483.986L471.615 486.045C481.049 483.707 485.391 502.353 485.864 511.954L487.534 549.33C487.534 551.139 487.701 552.92 487.812 554.757C487.812 556.092 487.979 557.54 488.035 558.82C488.202 561.13 488.341 563.467 488.508 565.777C488.508 567.503 488.758 569.228 488.897 570.954C489.454 578.189 490.15 585.369 490.957 592.577C491.764 599.785 492.682 606.492 493.74 613.617C493.74 613.951 493.74 614.312 493.74 614.674C494.714 621.381 495.827 628.032 497.024 634.711C497.135 635.073 497.191 635.324 497.218 635.491Z" fill="white"/>
</g>
<path d="M453.86 496.286L444.759 510.563L429.704 501.268L433.099 496.092L449.435 493.67L453.86 496.286Z" fill="#263238"/>
<path opacity="0.5" d="M453.86 496.286L444.759 510.563L429.704 501.268L433.099 496.092L449.435 493.67L453.86 496.286Z" fill="white"/>
<path d="M453.915 427.881C453.915 427.881 453.22 409.875 438.414 418.307L453.915 427.881Z" fill="#263238"/>
<path d="M426.103 495.001L426.103 495.001L426.107 494.991C427.923 490.286 427.773 483.915 426.806 477.641C425.928 471.944 424.367 466.261 422.918 461.846L444.202 475.419C443.56 481.806 444.695 488.831 450.761 492.424L446.414 497.796L438.592 498.948L426.067 495.092C426.079 495.061 426.091 495.031 426.103 495.001Z" fill="white" stroke="black"/>
<path opacity="0.1" d="M435.965 472.798C435.965 472.798 440.279 473.772 444.732 475.219C444.325 478.329 444.543 481.489 445.372 484.514C441.414 484.966 437.412 484.212 433.891 482.349C430.37 480.487 427.494 477.604 425.64 474.078C425.362 472.659 425.056 471.295 424.722 469.959L435.965 472.798Z" fill="black"/>
<path d="M415.269 444.029L415.269 444.029L415.267 444.021C414.382 440.997 414.224 437.807 414.805 434.71C415.85 429.398 418.958 424.716 423.449 421.692C427.941 418.667 433.448 417.546 438.764 418.576L438.764 418.576L438.77 418.577C446.564 419.998 452.13 425.966 455.708 433.42C459.285 440.869 460.83 449.715 460.623 456.698C460.16 471.918 443.466 482.266 429.923 473.327L429.921 473.326C421.709 467.966 419.691 460.454 416.392 448.177C416.036 446.851 415.665 445.47 415.269 444.029Z" fill="white" stroke="black"/>
<path d="M433.878 410.682C429.453 409.207 418.961 410.905 416.596 414.912C413.358 414.781 410.168 415.729 407.529 417.608C404.889 419.487 402.948 422.19 402.013 425.293C401.373 428.41 402.403 432.334 405.408 433.336C402.965 434.902 400.73 436.773 398.757 438.902C397.8 439.923 397.06 441.128 396.581 442.443C396.103 443.758 395.896 445.157 395.974 446.555C396.119 447.926 396.709 449.213 397.653 450.218C398.598 451.223 399.846 451.891 401.206 452.121C399.912 454.385 398.973 456.835 398.423 459.384C398.086 460.753 398.043 462.177 398.297 463.564C398.552 464.95 399.097 466.267 399.898 467.427C400.749 468.55 401.968 469.338 403.342 469.653C404.715 469.968 406.156 469.791 407.412 469.152H409.137C408.949 469.86 409.016 470.612 409.327 471.275C409.637 471.938 410.171 472.471 410.835 472.78C411.499 473.089 412.251 473.154 412.958 472.964C413.666 472.774 414.283 472.341 414.703 471.741C415.594 470.6 416.067 468.624 417.486 468.791C417.876 470.516 418.265 472.909 419.991 473.355C420.858 473.57 421.767 473.549 422.623 473.294C423.479 473.04 424.252 472.561 424.861 471.908C422.913 466.536 428.674 458.549 426.726 453.15C425.034 449.003 423.893 444.653 423.33 440.21C422.969 435.729 416.429 433.085 419.379 429.718C420.737 428.008 422.63 426.803 424.755 426.299C426.88 425.794 429.113 426.018 431.095 426.935C431.095 423.706 432.904 423.846 432.904 423.846C433.665 423.513 434.501 423.387 435.326 423.48C436.152 423.572 436.939 423.881 437.607 424.374C437.19 423.428 438.553 421.953 440.14 424.096C440.362 423.623 439.834 422.76 440.585 422.454C441.336 422.148 441.698 422.788 442.477 423.011C442.199 422.148 438.331 412.129 433.878 410.682Z" fill="#263238"/>
<path opacity="0.7" d="M433.878 410.682C429.453 409.207 418.961 410.905 416.596 414.912C413.358 414.781 410.168 415.729 407.529 417.608C404.889 419.487 402.948 422.19 402.013 425.293C401.373 428.41 402.403 432.334 405.408 433.336C402.965 434.902 400.73 436.773 398.757 438.902C397.8 439.923 397.06 441.128 396.581 442.443C396.103 443.758 395.896 445.157 395.974 446.555C396.119 447.926 396.709 449.213 397.653 450.218C398.598 451.223 399.846 451.891 401.206 452.121C399.912 454.385 398.973 456.835 398.423 459.384C398.086 460.753 398.043 462.177 398.297 463.564C398.552 464.95 399.097 466.267 399.898 467.427C400.749 468.55 401.968 469.338 403.342 469.653C404.715 469.968 406.156 469.791 407.412 469.152H409.137C408.949 469.86 409.016 470.612 409.327 471.275C409.637 471.938 410.171 472.471 410.835 472.78C411.499 473.089 412.251 473.154 412.958 472.964C413.666 472.774 414.283 472.341 414.703 471.741C415.594 470.6 416.067 468.624 417.486 468.791C417.876 470.516 418.265 472.909 419.991 473.355C420.858 473.57 421.767 473.549 422.623 473.294C423.479 473.04 424.252 472.561 424.861 471.908C422.913 466.536 428.674 458.549 426.726 453.15C425.034 449.003 423.893 444.653 423.33 440.21C422.969 435.729 416.429 433.085 419.379 429.718C420.737 428.008 422.63 426.803 424.755 426.299C426.88 425.794 429.113 426.018 431.095 426.935C431.095 423.706 432.904 423.846 432.904 423.846C433.665 423.513 434.501 423.387 435.326 423.48C436.152 423.572 436.939 423.881 437.607 424.374C437.19 423.428 438.553 421.953 440.14 424.096C440.362 423.623 439.834 422.76 440.585 422.454C441.336 422.148 441.698 422.788 442.477 423.011C442.199 422.148 438.331 412.129 433.878 410.682Z" fill="white"/>
<path d="M456.726 451.815C452.246 451.258 445.233 452.148 435.409 458.327C433.71 458.546 431.985 458.22 430.484 457.394C428.983 456.569 427.784 455.287 427.06 453.735L424.611 449.755L421.327 451.508L420.603 464.06C420.603 464.06 425.306 476.166 429.119 476.193C430.574 477.772 432.449 478.904 434.524 479.456C436.599 480.008 438.788 479.958 440.835 479.31C440.835 479.31 454.444 482.093 455.947 475.498C455.947 475.498 463.489 479.06 461.513 468.735C461.513 468.735 462.821 466.703 462.904 458.688C462.907 456.982 462.277 455.334 461.136 454.065C459.995 452.795 458.424 451.993 456.726 451.815Z" fill="#263238"/>
<g opacity="0.7">
<path d="M456.726 451.815C452.246 451.258 445.233 452.148 435.409 458.327C433.71 458.546 431.985 458.22 430.484 457.394C428.983 456.569 427.784 455.287 427.06 453.735L424.611 449.755L421.327 451.508L420.603 464.06C420.603 464.06 425.306 476.166 429.119 476.193C430.574 477.772 432.449 478.904 434.524 479.456C436.599 480.008 438.788 479.958 440.835 479.31C440.835 479.31 454.444 482.093 455.947 475.498C455.947 475.498 463.489 479.06 461.513 468.735C461.513 468.735 462.821 466.703 462.904 458.688C462.907 456.982 462.277 455.334 461.136 454.065C459.995 452.795 458.424 451.993 456.726 451.815Z" fill="white"/>
</g>
<path opacity="0.1" d="M457.478 458.967C455.901 458.508 454.527 457.527 453.581 456.184C453.527 456.454 453.417 456.71 453.259 456.935C453.101 457.161 452.898 457.351 452.663 457.495C452.428 457.639 452.165 457.732 451.893 457.77C451.62 457.808 451.342 457.789 451.077 457.715C450.246 458.811 449.228 459.753 448.071 460.498C447.47 460.858 446.782 461.049 446.081 461.049C445.38 461.049 444.693 460.858 444.092 460.498C444.548 461.117 445.143 461.621 445.829 461.969C446.516 462.317 447.274 462.499 448.043 462.501C448.879 462.497 449.704 462.305 450.455 461.939C451.207 461.573 451.866 461.042 452.385 460.386C452.62 460.551 452.886 460.666 453.167 460.724C453.448 460.782 453.738 460.783 454.019 460.725C454.3 460.668 454.567 460.554 454.803 460.391C455.038 460.227 455.238 460.017 455.39 459.774C455.973 460.278 456.727 460.542 457.497 460.511C458.267 460.48 458.996 460.156 459.537 459.607C459.259 459.913 458.619 459.607 458.257 459.607C458.089 459.562 457.933 459.481 457.798 459.371C457.664 459.261 457.555 459.123 457.478 458.967Z" fill="black"/>
<path d="M460.483 483.513L451.439 482.149L440.251 493.559L418.683 488.411L413.34 494.784L433.878 507.474L441.03 496.788L452.496 503.467L460.483 483.513Z" fill="#263238"/>
<path opacity="0.7" d="M460.483 483.513L451.439 482.149L440.251 493.559L418.683 488.411L413.34 494.784L433.878 507.474L441.03 496.788L452.496 503.467L460.483 483.513Z" fill="white"/>
<path d="M311.794 619.825L284.805 651.818L332.348 691.923L359.336 659.93L311.794 619.825Z" fill="#CFCECF"/>
<path opacity="0.2" d="M311.794 619.825L284.805 651.818L332.348 691.923L359.336 659.93L311.794 619.825Z" fill="black"/>
<path d="M307.869 624.467L280.881 656.46L328.423 696.565L355.412 664.572L307.869 624.467Z" fill="#CFCECF"/>
<path opacity="0.2" d="M307.869 624.467L280.881 656.46L328.423 696.565L355.412 664.572L307.869 624.467Z" fill="black"/>
<path d="M305.786 636.404L292.651 651.975C291.749 653.044 291.885 654.641 292.954 655.543L297.123 659.06C298.192 659.962 299.79 659.827 300.692 658.758L313.827 643.187C314.729 642.117 314.593 640.52 313.524 639.618L309.355 636.101C308.286 635.199 306.688 635.335 305.786 636.404Z" fill="white"/>
<path d="M357.652 660.092L355.37 662.931L309.646 624.331L311.706 621.799L357.652 660.092Z" fill="white"/>
<path d="M311.038 642.365L300.379 655.306L299.043 654.164L309.869 641.363L311.038 642.365Z" fill="#263238"/>
<path d="M414.954 449.31L415.816 450.006C416.735 448.726 419.74 444.885 421.382 444.44L432.32 441.824C432.281 442.212 432.281 442.604 432.32 442.993C432.568 443.965 433.008 444.878 433.613 445.679C434.219 446.48 434.977 447.153 435.845 447.658C436.712 448.163 437.672 448.49 438.667 448.621C439.662 448.752 440.674 448.683 441.642 448.419C443.641 447.984 445.392 446.787 446.524 445.084C447.657 443.38 448.082 441.303 447.709 439.291C447.652 439.027 447.577 438.767 447.487 438.512L450.854 437.705C450.854 437.955 450.854 438.234 450.854 438.512C451.1 439.486 451.537 440.402 452.142 441.205C452.746 442.008 453.505 442.682 454.373 443.188C455.242 443.693 456.203 444.02 457.199 444.149C458.196 444.278 459.208 444.207 460.177 443.939C462.178 443.497 463.929 442.295 465.061 440.587C466.193 438.879 466.617 436.798 466.244 434.783C465.131 429.718 459.537 431.081 457.422 431.582C455.307 432.083 451.299 433.057 450.771 436.508L446.847 437.454C444.899 434.671 440.585 435.645 438.776 436.063C436.967 436.48 432.987 437.482 432.208 440.627L420.909 443.41C419.267 443.827 416.039 447.835 414.954 449.31ZM451.995 438.345C451.383 435.562 453.108 433.892 457.756 432.779C462.403 431.666 464.658 432.362 465.27 435.145C465.574 436.869 465.195 438.643 464.214 440.093C463.232 441.542 461.724 442.552 460.01 442.909C459.184 443.145 458.319 443.213 457.467 443.111C456.614 443.008 455.79 442.736 455.044 442.311C454.297 441.886 453.643 441.316 453.12 440.635C452.596 439.954 452.214 439.176 451.995 438.345ZM433.349 442.826C432.737 440.043 434.462 438.401 439.11 437.26C443.758 436.119 446.012 436.842 446.624 439.625C446.936 441.35 446.56 443.128 445.577 444.58C444.594 446.031 443.082 447.039 441.364 447.39C440.538 447.625 439.674 447.694 438.821 447.591C437.968 447.488 437.144 447.217 436.398 446.792C435.651 446.366 434.997 445.797 434.474 445.116C433.95 444.435 433.568 443.656 433.349 442.826Z" fill="#263238"/>
<path opacity="0.7" d="M453.915 427.881C453.915 427.881 453.22 409.875 438.414 418.307L453.915 427.881Z" fill="white"/>
<path d="M886.668 273.927C886.369 222.999 865.851 174.275 829.628 138.475C793.405 102.674 744.444 82.7298 693.515 83.0287C642.587 83.3276 593.864 103.845 558.063 140.069C522.263 176.292 502.318 225.253 502.617 276.181C503.063 353.13 564.594 404.866 603.667 465.562C615.773 484.347 614.799 554.924 614.799 554.924L777.742 553.977C777.742 553.977 776.017 483.429 787.872 464.477C826.194 403.335 887.113 350.876 886.668 273.927Z" fill="#866686"/>
<path opacity="0.5" d="M886.668 273.927C886.369 222.999 865.851 174.275 829.628 138.475C793.405 102.674 744.444 82.7298 693.515 83.0287C642.587 83.3276 593.864 103.845 558.063 140.069C522.263 176.292 502.318 225.253 502.617 276.181C503.063 353.13 564.594 404.866 603.667 465.562C615.773 484.347 614.799 554.924 614.799 554.924L777.742 553.977C777.742 553.977 776.017 483.429 787.872 464.477C826.194 403.335 887.113 350.876 886.668 273.927Z" fill="white"/>
<path opacity="0.3" d="M863.847 238.444C863.847 359.336 788.373 496.426 694.976 496.509C601.58 496.593 525.716 343.446 525.633 238.75C525.633 174.241 601.246 121.865 694.642 121.865C788.039 121.865 863.792 173.935 863.847 238.444Z" fill="white"/>
<path opacity="0.4" d="M804.403 356.219C804.425 377.758 798.059 398.82 786.11 416.741C774.161 434.662 757.167 448.637 737.275 456.899C717.383 465.161 695.488 467.338 674.359 463.156C653.23 458.973 633.816 448.619 618.572 433.402C603.328 418.185 592.939 398.789 588.718 377.668C584.498 356.546 586.636 334.647 594.862 314.741C603.088 294.835 617.033 277.815 634.933 265.834C652.832 253.853 673.883 247.449 695.422 247.433C709.721 247.418 723.883 250.221 737.099 255.68C750.315 261.14 762.327 269.149 772.447 279.251C782.567 289.353 790.598 301.35 796.081 314.557C801.564 327.763 804.392 341.92 804.403 356.219Z" fill="white"/>
<path opacity="0.4" d="M771.174 383.771C771.174 426.016 736.972 438.874 694.726 438.929C652.48 438.985 618.333 426.155 618.333 383.91C618.333 341.664 652.397 329.364 694.643 329.364C736.888 329.364 771.147 341.525 771.174 383.771Z" fill="white"/>
<path d="M740.033 695.575H648.417L622.981 662.291H765.497L740.033 695.575Z" fill="#866686"/>
<path opacity="0.5" d="M740.033 695.575H648.417L622.981 662.291H765.497L740.033 695.575Z" fill="white"/>
<path d="M606.506 531.992C606.502 531.199 606.655 530.413 606.955 529.679C607.255 528.945 607.697 528.277 608.255 527.714C608.813 527.15 609.477 526.702 610.208 526.395C610.939 526.088 611.724 525.929 612.517 525.925L775.349 525.09C776.946 525.083 778.48 525.708 779.617 526.829C780.754 527.951 781.401 529.477 781.416 531.074C781.423 531.868 781.273 532.655 780.974 533.391C780.675 534.127 780.234 534.796 779.675 535.36C779.116 535.924 778.451 536.372 777.718 536.678C776.985 536.983 776.199 537.14 775.404 537.14L612.573 538.003C611.78 538.007 610.994 537.854 610.259 537.554C609.525 537.254 608.858 536.812 608.294 536.254C607.731 535.696 607.283 535.032 606.976 534.301C606.669 533.57 606.509 532.785 606.506 531.992Z" fill="#866686"/>
<path d="M795.859 557.289C795.859 563.194 793.514 568.857 789.338 573.032C785.163 577.207 779.5 579.553 773.595 579.553H750.998C749.349 579.957 747.658 580.162 745.96 580.165L615.55 580.388C609.958 580.021 604.71 577.558 600.854 573.492C596.998 569.426 594.817 564.055 594.746 558.451C594.676 552.847 596.722 547.423 600.475 543.262C604.228 539.1 609.413 536.507 614.994 535.999H638.092C639.577 535.625 641.098 535.419 642.629 535.387H643.13L773.623 535.165C779.499 535.172 785.134 537.502 789.299 541.646C793.464 545.79 795.823 551.413 795.859 557.289Z" fill="#866686"/>
<path d="M795.859 557.289C795.859 563.194 793.514 568.857 789.338 573.032C785.163 577.207 779.5 579.553 773.595 579.553H750.998C749.349 579.957 747.658 580.162 745.96 580.165L615.55 580.388C609.958 580.021 604.71 577.558 600.854 573.492C596.998 569.426 594.817 564.055 594.746 558.451C594.676 552.847 596.722 547.423 600.475 543.262C604.228 539.1 609.413 536.507 614.994 535.999H638.092C639.577 535.625 641.098 535.419 642.629 535.387H643.13L773.623 535.165C779.499 535.172 785.134 537.502 789.299 541.646C793.464 545.79 795.823 551.413 795.859 557.289Z" fill="#866686"/>
<g opacity="0.2">
<path d="M795.859 557.289C795.859 563.194 793.514 568.857 789.338 573.032C785.163 577.207 779.5 579.553 773.595 579.553H750.998C749.349 579.957 747.658 580.162 745.96 580.165L615.55 580.388C609.958 580.021 604.71 577.558 600.854 573.492C596.998 569.426 594.817 564.055 594.746 558.451C594.676 552.847 596.722 547.423 600.475 543.262C604.228 539.1 609.413 536.507 614.994 535.999H638.092C639.577 535.625 641.098 535.419 642.629 535.387H643.13L773.623 535.165C779.499 535.172 785.134 537.502 789.299 541.646C793.464 545.79 795.823 551.413 795.859 557.289Z" fill="white"/>
</g>
<path d="M788.095 600.564C788.207 603.381 787.761 606.192 786.785 608.837C785.808 611.482 784.32 613.907 782.404 615.976C780.488 618.044 778.183 619.714 775.621 620.89C773.059 622.065 770.29 622.724 767.473 622.828H746.489C744.954 623.232 743.374 623.438 741.786 623.44H620.448C614.887 623.041 609.678 620.569 605.852 616.514C602.025 612.459 599.859 607.116 599.782 601.541C599.705 595.966 601.723 590.565 605.436 586.406C609.15 582.247 614.288 579.633 619.836 579.08H641.321C642.705 578.728 644.123 578.532 645.551 578.495H767.362C778.8 578.328 788.095 588.18 788.095 600.564Z" fill="#866686"/>
<path opacity="0.3" d="M788.095 600.564C788.207 603.381 787.761 606.192 786.785 608.837C785.808 611.482 784.32 613.907 782.404 615.976C780.488 618.044 778.183 619.714 775.621 620.89C773.059 622.065 770.29 622.724 767.473 622.828H746.489C744.954 623.232 743.374 623.438 741.786 623.44H620.448C614.887 623.041 609.678 620.569 605.852 616.514C602.025 612.459 599.859 607.116 599.782 601.541C599.705 595.966 601.723 590.565 605.436 586.406C609.15 582.247 614.288 579.633 619.836 579.08H641.321C642.705 578.728 644.123 578.532 645.551 578.495H767.362C778.8 578.328 788.095 588.18 788.095 600.564Z" fill="white"/>
<path d="M780.358 642.726C780.358 654.999 771.87 664.99 761.35 664.851H741.87C740.459 665.259 738.996 665.456 737.528 665.435L625.346 665.213C614.771 665.213 606.172 655.222 606.116 642.949C606.06 630.676 614.465 621.103 624.706 620.852H644.549C645.82 620.504 647.128 620.308 648.445 620.268H648.946L761.156 620.49C771.703 620.49 780.302 630.453 780.358 642.726Z" fill="#866686"/>
<path opacity="0.4" d="M780.358 642.726C780.358 654.999 771.87 664.99 761.35 664.851H741.87C740.459 665.259 738.996 665.456 737.528 665.435L625.346 665.213C614.771 665.213 606.172 655.222 606.116 642.949C606.06 630.676 614.465 621.103 624.706 620.852H644.549C645.82 620.504 647.128 620.308 648.445 620.268H648.946L761.156 620.49C771.703 620.49 780.302 630.453 780.358 642.726Z" fill="white"/>
<path d="M619.029 671.14C619.022 670.345 619.172 669.556 619.47 668.819C619.769 668.081 620.21 667.41 620.768 666.844C621.327 666.278 621.992 665.827 622.725 665.519C623.458 665.21 624.245 665.049 625.04 665.046L762.825 664.767C764.42 664.775 765.948 665.41 767.078 666.535C768.208 667.659 768.85 669.184 768.864 670.779C768.872 671.573 768.722 672.36 768.423 673.096C768.124 673.832 767.683 674.501 767.124 675.065C766.565 675.629 765.899 676.077 765.166 676.383C764.434 676.688 763.647 676.846 762.853 676.846L625.068 677.124C624.279 677.128 623.496 676.976 622.766 676.677C622.035 676.378 621.37 675.939 620.809 675.383C620.249 674.827 619.803 674.167 619.497 673.439C619.192 672.711 619.033 671.93 619.029 671.14Z" fill="#866686"/>
<path d="M661.525 258.565L649.865 265.049C650.534 268.738 651.464 272.374 652.647 275.931L665.978 275.708C668.36 281.499 671.505 286.946 675.329 291.905L668.483 303.343C670.961 306.174 673.63 308.833 676.47 311.302L687.908 304.456C692.85 308.29 698.289 311.435 704.077 313.807L703.854 327.137C707.417 328.368 711.062 329.345 714.763 330.059L721.248 318.399C727.443 319.252 733.726 319.252 739.922 318.399L746.406 330.059C750.163 329.352 753.865 328.376 757.482 327.137L757.259 313.807C763.044 311.429 768.482 308.284 773.429 304.456L784.867 311.302C787.706 308.833 790.375 306.174 792.854 303.343L785.98 291.905C789.821 286.953 792.976 281.505 795.358 275.708L808.689 275.931C809.907 272.373 810.883 268.738 811.611 265.049L799.922 258.565C800.776 252.36 800.776 246.068 799.922 239.863L811.611 233.379C810.883 229.69 809.907 226.055 808.689 222.498L795.358 222.72C792.976 216.929 789.831 211.482 786.008 206.523L792.854 195.085C790.375 192.245 787.707 189.576 784.867 187.098L773.429 193.972C768.482 190.144 763.044 186.999 757.259 184.621L757.482 171.263C753.908 170.105 750.265 169.175 746.573 168.48L740.089 180.168C733.893 179.315 727.61 179.315 721.415 180.168L714.93 168.48C711.239 169.175 707.595 170.105 704.021 171.263L704.244 184.621C698.456 186.993 693.017 190.139 688.075 193.972L676.637 187.098C673.796 189.576 671.128 192.245 668.65 195.085L675.496 206.523C671.672 211.482 668.527 216.929 666.145 222.72L652.814 222.498C651.631 226.054 650.701 229.691 650.031 233.379L661.692 239.863C660.839 246.068 660.839 252.36 661.692 258.565H661.525ZM693.307 250.884C693.307 243.369 695.535 236.024 699.711 229.776C703.886 223.529 709.821 218.66 716.764 215.785C723.706 212.911 731.346 212.16 738.716 213.628C746.085 215.096 752.854 218.717 758.165 224.032C763.477 229.348 767.093 236.119 768.555 243.49C770.018 250.861 769.262 258.499 766.382 265.44C763.503 272.381 758.63 278.312 752.379 282.483C746.128 286.654 738.781 288.877 731.266 288.871C721.196 288.864 711.541 284.859 704.423 277.735C697.305 270.612 693.307 260.954 693.307 250.884Z" fill="#263238"/>
<path d="M602.721 358.752L589.836 365.904C590.263 367.897 590.792 369.866 591.422 371.804L606.172 371.581C607.447 374.472 609.033 377.216 610.903 379.763L603.305 392.398C604.675 393.92 606.124 395.37 607.647 396.739L620.281 389.142C622.829 391.011 625.572 392.598 628.463 393.873L628.241 408.623C630.179 409.252 632.148 409.782 634.141 410.209L641.293 397.324C644.438 397.658 647.61 397.658 650.755 397.324L657.907 410.209C659.909 409.782 661.888 409.252 663.835 408.623L663.585 393.873C666.476 392.598 669.219 391.011 671.766 389.142L684.401 396.739C685.931 395.377 687.38 393.927 688.743 392.398L681.145 379.763C683.015 377.216 684.601 374.472 685.876 371.581L700.626 371.804C701.269 369.87 701.798 367.9 702.212 365.904L689.327 358.752C689.661 355.606 689.661 352.435 689.327 349.29L702.212 342.137C701.798 340.132 701.269 338.153 700.626 336.21L685.876 336.46C684.601 333.569 683.015 330.825 681.145 328.278L688.743 315.643C687.38 314.114 685.931 312.664 684.401 311.302L671.766 318.9C669.219 317.03 666.476 315.443 663.585 314.168L663.835 299.419C661.891 298.776 659.912 298.246 657.907 297.832L650.755 310.718C647.61 310.384 644.438 310.384 641.293 310.718L634.141 297.832C632.145 298.246 630.175 298.776 628.241 299.419L628.463 314.168C625.572 315.443 622.829 317.03 620.281 318.9L607.647 311.302C606.117 312.664 604.668 314.114 603.305 315.643L610.903 328.278C609.033 330.825 607.447 333.569 606.172 336.46L591.422 336.21C590.792 338.157 590.263 340.136 589.836 342.137L602.721 349.29C602.387 352.435 602.387 355.606 602.721 358.752ZM620.281 354.021C620.281 348.929 621.791 343.952 624.62 339.719C627.449 335.486 631.469 332.186 636.173 330.238C640.877 328.289 646.053 327.779 651.046 328.773C656.04 329.766 660.627 332.218 664.227 335.818C667.827 339.418 670.279 344.005 671.272 348.999C672.265 353.992 671.755 359.168 669.807 363.872C667.859 368.576 664.559 372.596 660.326 375.425C656.092 378.253 651.115 379.763 646.024 379.763C642.643 379.763 639.296 379.097 636.173 377.804C633.049 376.51 630.212 374.614 627.821 372.223C625.431 369.833 623.535 366.995 622.241 363.872C620.947 360.749 620.281 357.401 620.281 354.021Z" fill="#263238"/>
<path opacity="0.5" d="M602.721 358.752L589.836 365.904C590.263 367.897 590.792 369.866 591.422 371.804L606.172 371.581C607.447 374.472 609.033 377.216 610.903 379.763L603.305 392.398C604.675 393.92 606.124 395.37 607.647 396.739L620.281 389.142C622.829 391.011 625.572 392.598 628.463 393.873L628.241 408.623C630.179 409.252 632.148 409.782 634.141 410.209L641.293 397.324C644.438 397.658 647.61 397.658 650.755 397.324L657.907 410.209C659.909 409.782 661.888 409.252 663.835 408.623L663.585 393.873C666.476 392.598 669.219 391.011 671.766 389.142L684.401 396.739C685.931 395.377 687.38 393.927 688.743 392.398L681.145 379.763C683.015 377.216 684.601 374.472 685.876 371.581L700.626 371.804C701.269 369.87 701.798 367.9 702.212 365.904L689.327 358.752C689.661 355.606 689.661 352.435 689.327 349.29L702.212 342.137C701.798 340.132 701.269 338.153 700.626 336.21L685.876 336.46C684.601 333.569 683.015 330.825 681.145 328.278L688.743 315.643C687.38 314.114 685.931 312.664 684.401 311.302L671.766 318.9C669.219 317.03 666.476 315.443 663.585 314.168L663.835 299.419C661.891 298.776 659.912 298.246 657.907 297.832L650.755 310.718C647.61 310.384 644.438 310.384 641.293 310.718L634.141 297.832C632.145 298.246 630.175 298.776 628.241 299.419L628.463 314.168C625.572 315.443 622.829 317.03 620.281 318.9L607.647 311.302C606.117 312.664 604.668 314.114 603.305 315.643L610.903 328.278C609.033 330.825 607.447 333.569 606.172 336.46L591.422 336.21C590.792 338.157 590.263 340.136 589.836 342.137L602.721 349.29C602.387 352.435 602.387 355.606 602.721 358.752ZM620.281 354.021C620.281 348.929 621.791 343.952 624.62 339.719C627.449 335.486 631.469 332.186 636.173 330.238C640.877 328.289 646.053 327.779 651.046 328.773C656.04 329.766 660.627 332.218 664.227 335.818C667.827 339.418 670.279 344.005 671.272 348.999C672.265 353.992 671.755 359.168 669.807 363.872C667.859 368.576 664.559 372.596 660.326 375.425C656.092 378.253 651.115 379.763 646.024 379.763C642.643 379.763 639.296 379.097 636.173 377.804C633.049 376.51 630.212 374.614 627.821 372.223C625.431 369.833 623.535 366.995 622.241 363.872C620.947 360.749 620.281 357.401 620.281 354.021Z" fill="#263238"/>
</svg>
